<svg xmlns="http://www.w3.org/2000/svg" width="100mm" height="93.52mm" viewBox="0 0 283.46 265.09"><title>els-logo</title><path d="M265.18,18.29V182.88H119.4V224L73.68,182.88H18.29V18.29H265.18M283.46,0H0V201.17H66.66l40.51,36.45,30.52,27.47V201.17H283.46V0Z" fill="#f58220"/><path d="M228.55,127.92a7.78,7.78,0,1,1,7.78,7.73A7.7,7.7,0,0,1,228.55,127.92Zm14.37,0a6.59,6.59,0,1,0-6.59,6.54A6.6,6.6,0,0,0,242.92,127.92ZM240,132.1h-1.43l-2.54-3.91h-1.43v3.91h-1.19v-8.47h3.69c1.53,0,3,.42,3,2.24,0,1.67-1.17,2.28-2.68,2.32Zm-4-5.1c1,0,2.9.2,2.9-1.15,0-.87-1.15-1-2.06-1h-2.27V127Z" fill="#f58220"/><path d="M73.24,87.71H98.08c2.2,0,2.85.65,2.85,2.84v11.09c0,1.84-.72,2.57-2.56,2.57H74.69c-1.44,0-1.45,0-1.45,1.39,0,4.13,0,8.25,0,12.38,0,1.07.23,1.41,1.37,1.41,9.63,0,19.26,0,28.9,0,2.34,0,3,.62,3,3,0,3.58,0,7.17,0,10.75,0,2.13-.69,2.8-2.81,2.8H58.56c-2.15,0-2.84-.7-2.84-2.89V60.2c0-2.17.7-2.9,2.84-2.9h45.09c2.1,0,2.79.7,2.8,2.81q0,5.49,0,11c0,2-.7,2.72-2.76,2.72h-29c-1.45,0-1.45,0-1.45,1.49V87.71Z" fill="#f58220"/><path d="M200.75,137c-7.57,0-14-1.33-19.84-4.5a40,40,0,0,1-6.06-4.35c-1.2-1-1.2-1.51-.46-2.84,1.73-3.1,3.47-6.19,5.25-9.26.84-1.46,2.48-1.72,4.06-.69a46.17,46.17,0,0,0,9.87,5,14.38,14.38,0,0,0,7.88.85c5.33-1.14,7.41-6.34,4.45-10.92a13.53,13.53,0,0,0-5.49-4.66c-3.3-1.65-6.7-3.09-10-4.7a34.81,34.81,0,0,1-11.3-8.47c-9.37-10.78-5.78-27.57,7.89-33.68a31.24,31.24,0,0,1,14.52-2.49c8.29.41,15.58,3.55,22.25,8.33a2.69,2.69,0,0,1,.62,3.75c-1.88,2.93-3.78,5.84-5.78,8.68-1.21,1.73-2.65,1.81-4.5.77-3.07-1.75-6.16-3.51-9.36-5a12.35,12.35,0,0,0-7.73-1c-4.75,1-6.61,5.63-3.83,9.59a12,12,0,0,0,4.63,3.85c3.61,1.76,7.28,3.39,10.93,5.07A40.53,40.53,0,0,1,219.18,97c12.13,11.1,9,29.06-4.73,36.47A28.48,28.48,0,0,1,200.75,137Z" fill="#f58220"/><path d="M119.29,96.53q0-18.15,0-36.29c0-2.24.67-2.93,2.9-2.94H134c2.18,0,2.87.7,2.87,2.86v57.7c0,1.5,0,1.5,1.55,1.5H162.8c2.32,0,3,.64,3,3,0,3.55,0,7.1,0,10.65,0,2.19-.69,2.89-2.84,2.89H122.17c-2.22,0-2.88-.68-2.88-2.94Q119.28,114.72,119.29,96.53Z" fill="#f58220"/></svg>